# xmcd
#
# Track frame offsets:
#	183
#	15883
#	46858
#	66733
#	88500
#	115103
#	126085
#	146530
#	165765
#	185223
#	201658
#	235060
#	259535
#	285428
#	299555
#
# Disc length: 4219 seconds
#
# Revision: 8
# Processed by: cddbd v1.5.2PL0 Copyright (c) Steve Scherf et al.
# Submitted via: audiograbber 1.83.01
#
DISCID=d710790f
DTITLE=Various Artist - Blues Ballads Vol 1 - CD 2
DYEAR=1989
DGENRE=Blues
TTITLE0=B.B. King - Ain't Nobody Home
TTITLE1=Johnny Copeland - I De Go Now
TTITLE2=Chicken Shack - The Way It Is
TTITLE3=Stevie Ray Vaughan and Lonnie Mack - Oreo Cookie Blues
TTITLE4=Eric Clapton and John Mayall - Have You Heard
TTITLE5=Screamin' Jay Hawkins - I Put A Spell On You
TTITLE6=Koko Taylor - I'm A Woman
TTITLE7=The Paladins - You and I
TTITLE8=Robert Cray Band - Right Next Door
TTITLE9=Bobby Bland - Sweet Womans Love
TTITLE10=Albert Collins and Barrelhouse - I've Got A Mind To Travel
TTITLE11=Muddy Waters - Deep Down In Florida
TTITLE12=Walter "Wolfman" Washington - Out Of The Dark
TTITLE13=Fleetwood Mac - Albatros
TTITLE14=Flavium - Nightlife
EXTD=
EXTT0=
EXTT1=
EXTT2=
EXTT3=
EXTT4=
EXTT5=
EXTT6=
EXTT7=
EXTT8=
EXTT9=
EXTT10=
EXTT11=
EXTT12=
EXTT13=
EXTT14=
PLAYORDER=
